<svg width="32" height="32" viewBox="0 0 32 32" fill="none" xmlns="http://www.w3.org/2000/svg">
<g filter="url(#filter0_ii_2_19513)">
<path d="M0 8C0 4.22876 0 2.34315 1.17157 1.17157C2.34315 0 4.22876 0 8 0H24C27.7712 0 29.6569 0 30.8284 1.17157C32 2.34315 32 4.22876 32 8V24C32 27.7712 32 29.6569 30.8284 30.8284C29.6569 32 27.7712 32 24 32H8C4.22876 32 2.34315 32 1.17157 30.8284C0 29.6569 0 27.7712 0 24V8Z" fill="url(#paint0_linear_2_19513)"/>
<path d="M17.5 9.25V12.25C17.5 12.4489 17.579 12.6397 17.7197 12.7803C17.8603 12.921 18.0511 13 18.25 13H21.25M17.5 9.25H12.25C11.8522 9.25 11.4706 9.40804 11.1893 9.68934C10.908 9.97064 10.75 10.3522 10.75 10.75V21.25C10.75 21.6478 10.908 22.0294 11.1893 22.3107C11.4706 22.592 11.8522 22.75 12.25 22.75H19.75C20.1478 22.75 20.5294 22.592 20.8107 22.3107C21.092 22.0294 21.25 21.6478 21.25 21.25V13M17.5 9.25L21.25 13M16 15.25V19.75M16 15.25L14.125 17.125M16 15.25L17.875 17.125" stroke="white" stroke-width="1.2" stroke-linecap="round" stroke-linejoin="round"/>
</g>
<defs>
<filter id="filter0_ii_2_19513" x="0" y="-1" width="32" height="34" filterUnits="userSpaceOnUse" color-interpolation-filters="sRGB">
<feFlood flood-opacity="0" result="BackgroundImageFix"/>
<feBlend mode="normal" in="SourceGraphic" in2="BackgroundImageFix" result="shape"/>
<feColorMatrix in="SourceAlpha" type="matrix" values="0 0 0 0 0 0 0 0 0 0 0 0 0 0 0 0 0 0 127 0" result="hardAlpha"/>
<feOffset dy="1"/>
<feGaussianBlur stdDeviation="0.5"/>
<feComposite in2="hardAlpha" operator="arithmetic" k2="-1" k3="1"/>
<feColorMatrix type="matrix" values="0 0 0 0 1 0 0 0 0 1 0 0 0 0 1 0 0 0 0.4 0"/>
<feBlend mode="normal" in2="shape" result="effect1_innerShadow_2_19513"/>
<feColorMatrix in="SourceAlpha" type="matrix" values="0 0 0 0 0 0 0 0 0 0 0 0 0 0 0 0 0 0 127 0" result="hardAlpha"/>
<feOffset dy="-1"/>
<feGaussianBlur stdDeviation="0.5"/>
<feComposite in2="hardAlpha" operator="arithmetic" k2="-1" k3="1"/>
<feColorMatrix type="matrix" values="0 0 0 0 0 0 0 0 0 0 0 0 0 0 0 0 0 0 0.08 0"/>
<feBlend mode="normal" in2="effect1_innerShadow_2_19513" result="effect2_innerShadow_2_19513"/>
</filter>
<linearGradient id="paint0_linear_2_19513" x1="16" y1="0" x2="16" y2="32" gradientUnits="userSpaceOnUse">
<stop stop-color="#CDCDD1"/>
<stop offset="1" stop-color="#9B9B9E"/>
</linearGradient>
</defs>
</svg>
