<svg width="38" height="38" viewBox="0 0 38 38" fill="none" xmlns="http://www.w3.org/2000/svg">
<path d="M20.4274 10.7914C19.7004 9.82109 18.2996 9.82109 17.5726 10.7914C15.798 13.1596 13 17.4207 13 20.7437C13 24.5826 15.3183 27 19 27C22.6817 27 25 24.5826 25 20.7437C25 17.4207 22.202 13.1596 20.4274 10.7914ZM19.6667 24.7408V23.698C20.3295 23.6972 20.9649 23.4223 21.4336 22.9336C21.9023 22.4449 22.1659 21.7824 22.1667 21.0912H23.1667C23.1657 22.0588 22.7966 22.9865 22.1404 23.6707C21.4843 24.3549 20.5946 24.7397 19.6667 24.7408Z" fill="#3787FF"/>
<path d="M4.27677 21.5961C2.07436 21.9844 0.564727 24.1119 1.41016 26.1824C2.59049 29.0729 4.47355 31.6483 6.9148 33.6608C10.4056 36.5383 14.8085 38.0759 19.3318 37.997C23.855 37.9181 28.2017 36.2277 31.59 33.23C33.9594 31.1337 35.7515 28.4941 36.8303 25.5641C37.603 23.4654 36.0199 21.3919 33.8053 21.0806C31.5908 20.7694 29.6024 22.3814 28.5085 24.3321C27.9156 25.3893 27.1458 26.3486 26.2237 27.1645C24.2796 28.8845 21.7857 29.8542 19.1905 29.8996C16.5953 29.9448 14.069 29.0627 12.0662 27.4116C11.1161 26.6284 10.3134 25.6966 9.68388 24.6606C8.52262 22.7494 6.47918 21.2077 4.27677 21.5961Z" fill="#3787FF"/>
<path d="M37.8529 21.3744C37.95 20.5965 37.9999 19.8041 37.9999 19C37.9999 8.5066 29.4933 0 18.9999 0C8.50656 0 0 8.5066 0 19C0 20.032 0.0822697 21.0447 0.240615 22.032C1.11332 20.8373 2.47539 19.9845 3.94662 19.7251C5.53842 19.4444 6.98511 19.8304 8.20831 20.5521C8.13605 20.0451 8.09866 19.5269 8.09866 19C8.09866 12.9794 12.9794 8.09869 18.9999 8.09869C25.0205 8.09869 29.9012 12.9794 29.9012 19C29.9012 19.397 29.8799 19.789 29.8386 20.175C31.036 19.4108 32.4686 18.9742 34.0695 19.1993C35.5485 19.4071 36.939 20.2115 37.8529 21.3744Z" fill="#1E4A8C"/>
</svg>
